<svg height="512" viewBox="0 0 2400 2400" width="512" xmlns="http://www.w3.org/2000/svg"><g><path d="m1209.849 704.755c90.4 0 169.537-289.831 538.86-289.831 215.262 0 386.91 170.944 386.91 455.851 0 559.964-832.912 1125.556-911.7 1125.556s-959.538-410.831-959.538-1035.512c0-298.272 213.856-509.314 478.362-509.314 308.473 0 384.448 253.25 467.106 253.25z" fill="#e00b1b"/><path d="m1804.56 418.949c146.479 169.009 226.314 567.007-171.4 1033.416-256.012 300.227-519.9 390.058-725.58 394.676 156.818 96.493 288.1 149.29 316.342 149.29 78.789 0 911.7-565.592 911.7-1125.557-.003-259.767-142.722-424.726-331.062-451.825z" fill="#cc051d"/><g><circle cx="1633.305" cy="1039.608" fill="#082f3f" r="171.647"/><g fill="#fff"><circle cx="1692.783" cy="1006.897" r="79.141"/><circle cx="1582.151" cy="1138.401" r="31.491"/><path d="m1597.645 959.487c-13.9 22.149-25.548 41.933-37.88 34.2s-11.063-31.965 2.834-54.114 35.16-33.831 47.492-26.093 1.451 23.859-12.446 46.007z"/></g></g><g><circle cx="784.883" cy="1039.608" fill="#082f3f" r="171.647"/><g fill="#fff"><circle cx="844.36" cy="1006.897" r="79.141"/><circle cx="733.729" cy="1138.401" r="31.491"/><path d="m749.223 959.487c-13.9 22.149-25.548 41.933-37.88 34.2s-11.063-31.965 2.834-54.114 35.16-33.831 47.492-26.093 1.451 23.859-12.446 46.007z"/></g></g><path d="m1209.093 1478.275c-93.95 0-175.793-66.714-194.6-158.634a25.912 25.912 0 1 1 50.772-10.387c13.895 67.91 74.384 117.2 143.831 117.2a146.5 146.5 0 0 0 144.578-121.115 25.912 25.912 0 1 1 51.038 9 198.248 198.248 0 0 1 -195.619 163.936z" fill="#082f3f"/><g fill="#f8a"><path d="m1883.635 1224.489c15.6 45.895-36.323 105.05-115.976 132.126s-156.871 11.822-172.472-34.073 50.041-64.693 129.694-91.77 143.153-52.178 158.754-6.283z"/><path d="m534.553 1224.489c-15.6 45.895 36.323 105.05 115.975 132.126s156.872 11.822 172.472-34.073-50.042-64.693-129.695-91.77-143.151-52.178-158.752-6.283z"/></g></g></svg>